PathFileType	4	(X/Y/Z)	Patient4_TMGait_0pt4_01_left_30.trc.trc
DataRate	CameraRate	NumFrames	NumMarkers	Units	OrigDataRate	OrigDataStartFrame	OrigNumFrames
74.866310160428	74.866310160428	4	33	mm	74.866310160428	53	       141
Frame#	Time	Sacral			L.Shoulder			Chest			R.Shoulder			Neck			R.ASIS			L.ASIS			R.Thigh.Superior			R.Thigh.Lateral			R.Thigh.Inferior			R.Patella			L.Thigh.Superior			L.Thigh.Lateral			L.Thigh.Inferior			L.Patella			L.Shank.Superior			L.Shank.Lateral			L.Shank.Inferior			R.Shank.Superior			R.Shank.Lateral			R.Shank.Inferior			R.Heel			R.Midfoot.Superior			R.Midfoot.Lateral			R.Toe			L.Heel			L.Midfoot.Lateral			L.Midfoot.Superior			L.Toe			L.Elbow			L.Wrist			R.Elbow			R.Wrist			
		X1	Y1	Z1	X2	Y2	Z2	X3	Y3	Z3	X4	Y4	Z4	X5	Y5	Z5	X6	Y6	Z6	X7	Y7	Z7	X8	Y8	Z8	X9	Y9	Z9	X10	Y10	Z10	X11	Y11	Z11	X12	Y12	Z12	X13	Y13	Z13	X14	Y14	Z14	X15	Y15	Z15	X16	Y16	Z16	X17	Y17	Z17	X18	Y18	Z18	X19	Y19	Z19	X20	Y20	Z20	X21	Y21	Z21	X22	Y22	Z22	X23	Y23	Z23	X24	Y24	Z24	X25	Y25	Z25	X26	Y26	Z26	X27	Y27	Z27	X28	Y28	Z28	X29	Y29	Z29	X30	Y30	Z30	X31	Y31	Z31	X32	Y32	Z32	X33	Y33	Z33	

53	37.414571428571	887.232218754445	1004.828309958039	457.848572320905	1072.568007500999	1431.968022437743	264.110006072538	1165.280149435379	1370.618158065762	433.444535097262	1070.121070928291	1448.568180305516	599.431987102857	1048.760775956371	1498.786456184897	416.719662474803	1115.277909502433	952.371567056176	580.767998615275	1106.856866200576	965.239448008579	305.706927180807	1201.091414575309	779.249261068429	559.643792679085	1158.222919881833	659.041031405921	636.957433848520	1252.276996507534	619.039501224637	564.190828113743	1271.565968779075	509.979145546425	589.736964175558	1153.474254619860	750.792345176116	335.016428104787	1061.820611114318	635.166627286109	279.925660505038	1145.705551263017	557.181685084458	342.760580995657	1144.364216880763	488.059956608816	354.218284626650	1115.047909002207	415.874390744059	348.591680091200	1020.877181431933	303.226956770103	299.621727793449	1068.406149068266	192.537767760051	375.241467157794	1201.695842360450	430.837251619617	596.952132795023	1083.836015317027	383.904999626426	658.910450807241	1077.941936750281	272.845043968444	612.267564440791	882.759876113432	195.973393173235	586.888945417953	1055.808786753561	152.312009509185	629.530873835151	946.367756319774	142.505122187648	661.400491437003	1128.093889325973	43.885024661711	655.350068111966	936.211777139410	39.034576840119	420.834684702812	1010.648989943099	35.871443331337	340.397693586313	1094.092412882553	95.983018573751	367.453055202990	1222.639940115872	43.895321599165	340.673792047591	1088.202706736895	1080.657592938253	143.773125881914	1243.903153483952	868.769057532867	150.653703219933	1009.755940862064	1109.453413470751	727.483045512326	1069.546995194382	857.598040218055	762.664795963747	
54	37.427928571429	886.623724055415	1005.717959864019	456.363708500323	1074.180232431638	1432.301516691788	263.050025400030	1165.236430097828	1371.158385866203	433.299629485870	1068.722503154064	1449.535225714144	598.253786599950	1048.956646694742	1499.363824076247	415.421457633700	1113.964526854337	953.462825171109	580.520527360420	1106.832335329113	965.374771135117	305.450125413134	1200.515543832123	781.401475131771	559.161166243901	1159.230388690844	661.135734078511	637.033188061317	1252.775224820649	621.564956510089	563.532736533788	1273.941622245117	513.640537251133	589.604285531107	1151.133660190649	750.219852240773	335.348084614219	1058.323848132192	635.487898921369	279.633053688442	1141.027540972816	556.668649832133	342.766950843178	1138.857468980829	487.770032628476	354.187871149946	1109.643454117704	415.937658408691	348.365383131676	1015.349243719355	303.342963900676	299.415025602067	1062.968120249122	192.643798266843	375.095063012098	1206.541304279306	432.999210376212	597.554289358546	1090.880947980741	381.697638255812	660.010832554619	1089.283817019906	270.255053660759	613.784531656294	897.375317485821	185.094281353285	589.051370468602	1072.132850059646	149.182928652138	631.888103095821	963.231741379453	134.915224657656	663.868243055799	1148.825610698709	44.294507184997	658.343765397774	930.786541474640	39.055316984306	420.774508539918	1005.253429157241	35.863476942950	340.351438626145	1088.691272601066	95.996462990950	367.388973223020	1217.242471930716	43.924016341210	340.638066763169	1094.059562228910	1081.194919233448	143.003487122188	1253.156207983609	871.946513359326	152.747057811302	1003.064720094579	1112.211587326028	727.614689407946	1056.701123277870	859.762090833468	767.424693938099	
55	37.441285714286	886.007147687879	1006.533650822814	455.053196970572	1075.852833644539	1432.459080151304	262.114354216528	1165.269790874137	1371.554884357215	433.267493730686	1067.441754290330	1450.416145825316	597.175941770791	1049.225146068226	1499.802675584456	414.221713817570	1112.608563720205	954.363398748735	580.491877927896	1106.784530188047	965.377056115437	305.434036257349	1199.598164156235	783.091317789238	558.768508624525	1159.747032324184	662.833827107266	637.184204759608	1252.522672492246	623.490739064260	562.807173237229	1275.501864861467	516.939940906545	589.397574728833	1148.722919402678	749.606266753742	335.988547497600	1054.925122378228	635.760657621220	279.438552238873	1136.374127453737	556.138979285888	342.949125676918	1133.370125085216	487.459170141576	354.291179239187	1104.282826035414	415.964613093724	348.253775708658	1009.914986013257	303.427898803772	299.260516310234	1057.533055887767	192.706001552982	375.003354900381	1210.907952384859	434.781333722505	598.174279110708	1097.931333818404	378.720394154467	661.274651140691	1101.078389376800	267.062213360363	615.443356114201	913.114933682637	173.015346346227	591.543630601241	1089.428776566653	145.500584502111	634.348608875441	981.326112092976	126.483068074962	666.625798780955	1170.807747477323	44.679042916006	661.473091578373	925.368084554107	39.061506093830	420.727160298059	999.855106917750	35.850796154198	340.311910341995	1083.283094765300	95.998931994980	367.354924568508	1211.846230921010	43.946288043811	340.611091625165	1099.614116542974	1081.569098206581	142.456415241221	1262.065283381282	875.042318697985	154.982107384063	996.566163192040	1115.029787713642	727.961083620724	1044.698597262953	862.231131716756	771.692392834389	
56	37.454642857143	885.379415127277	1007.252878187012	453.917144307842	1077.569025930995	1432.414915291186	261.316610019847	1165.382979415637	1371.781373478121	433.353561469044	1066.294413922936	1451.178461002707	596.215384921390	1049.577557243460	1500.083226804208	413.133748825741	1111.220876617579	955.041446046219	580.676227907766	1106.741009254055	965.270012151450	305.640898651678	1198.345478526255	784.281089368863	558.485954180375	1159.725603919273	664.103326966949	637.422212897933	1251.527615465798	624.793037830237	562.080687982190	1276.237468828257	519.846642672753	589.143236593020	1146.283166301115	748.946614539122	336.866278973093	1051.652583216827	635.969634034629	279.329553612610	1131.801144879581	555.584857554371	343.269647303123	1127.970359697576	487.119989281290	354.500127488143	1099.022630375372	415.939508755764	348.241105443660	1004.611819414047	303.476594673022	299.146174287611	1052.124217568200	192.715402532422	374.957944680774	1214.781919345655	436.205101487077	598.803482844531	1105.001543830753	375.117645047195	662.687505725484	1113.250585123074	263.480372289942	617.194980517420	929.954462252305	160.162827480688	594.300517255568	1107.551094232168	141.555198469759	636.821325798540	1000.552598770124	117.590689338922	669.579821890052	1193.758661048152	45.264302266337	664.586798090574	919.960327106847	39.054549429704	420.690850035985	994.456609667574	35.833951294901	340.277981453340	1077.872702238344	95.988274336023	367.346405687369	1206.454161186163	43.954112385080	340.592273905334	1104.865261245247	1081.745963503175	142.129582832945	1270.608620543941	878.004367002746	157.333991979534	990.277159142692	1117.838821689679	728.467767011893	1033.567628508637	864.866707235494	775.468309738240	
